<?xml version="1.0" ?><!DOCTYPE svg  PUBLIC '-//W3C//DTD SVG 1.1//EN'  'http://www.w3.org/Graphics/SVG/1.1/DTD/svg11.dtd'><svg enable-background="new 0 0 48 48" height="48px" id="Layer_1" version="1.1" viewBox="0 0 48 48" width="48px" xml:space="preserve" xmlns="http://www.w3.org/2000/svg" xmlns:xlink="http://www.w3.org/1999/xlink"><g><path d="M30.438,16.625h-2.406h-1.469h-10.53c-0.64,0-1.157,0.518-1.157,1.157v6.071v1.445v4.265l2.67-1.766   c0,0,1.998-1.343,4.727-1.343h5.76c0.029,0,0.053-0.015,0.082-0.017h2.324c1.105,0,2-0.896,2-2v-5.813   C32.438,17.521,31.543,16.625,30.438,16.625z" fill="#231F20"/><path d="M24,0C10.746,0,0,10.745,0,24s10.746,24,24,24c13.256,0,24-10.745,24-24S37.256,0,24,0z M36.375,27.813   c0,1.104-0.895,2-2,2H23.042c-2.683,0-4.456,0.825-5.284,1.318l-0.545,0.36l-0.002,0.002H17.21l-5.585,3.694v-7.375v-2.5v-10.5   c0-1.104,0.896-2,2-2h20.75c1.105,0,2,0.896,2,2V27.813z" fill="#231F20"/></g></svg>