<?xml version="1.0" ?><svg height="20px" version="1.1" viewBox="0 0 20 20" width="20px" xmlns="http://www.w3.org/2000/svg" xmlns:sketch="http://www.bohemiancoding.com/sketch/ns" xmlns:xlink="http://www.w3.org/1999/xlink"><title/><desc/><defs/><g fill="none" fill-rule="evenodd" id="Page-1" stroke="none" stroke-width="1"><g fill="#31AF91" id="Icons-Communication" transform="translate(-84.000000, -41.000000)"><g id="comment" transform="translate(84.000000, 41.000000)"><path d="M20,2 C20,0.9 19.1,0 18,0 L2,0 C0.9,0 0,0.9 0,2 L0,14 C0,15.1 0.9,16 2,16 L16,16 L20,20 L20,2 L20,2 Z M16,12 L4,12 L4,10 L16,10 L16,12 L16,12 Z M16,9 L4,9 L4,7 L16,7 L16,9 L16,9 Z M16,6 L4,6 L4,4 L16,4 L16,6 L16,6 Z" id="Shape"/></g></g></g></svg>
