<svg xmlns="http://www.w3.org/2000/svg" viewBox="0 0 22.521 18.58">
  <defs>
    <style>
      .cls-1 {
        fill: #fff;
      }
    </style>
  </defs>
  <path id="Pfad_15" data-name="Pfad 15" class="cls-1" d="M45.4,37H25.126A1.129,1.129,0,0,0,24,38.126V49.95a1.129,1.129,0,0,0,1.126,1.126h5.63V55.3a.281.281,0,0,0,.45.225l6.278-4.448H45.4a1.129,1.129,0,0,0,1.126-1.126V38.126A1.129,1.129,0,0,0,45.4,37ZM30.756,45.446a1.408,1.408,0,1,1,1.408-1.408A1.394,1.394,0,0,1,30.756,45.446Zm4.5,0a1.408,1.408,0,1,1,1.408-1.408A1.394,1.394,0,0,1,35.261,45.446Zm4.5,0a1.408,1.408,0,1,1,1.408-1.408A1.394,1.394,0,0,1,39.765,45.446Z" transform="translate(-24 -37)"/>
</svg>
