<?xml version="1.0" ?><svg enable-background="new 0 0 64 64" version="1.1" viewBox="0 0 64 64" xml:space="preserve" xmlns="http://www.w3.org/2000/svg" xmlns:xlink="http://www.w3.org/1999/xlink"><g id="row_4"/><g id="row_3"/><g id="row_2"><g id="like"><path d="M14,58h9.7c1.6,0,3.1,0.5,4.3,1.5c2,1.6,4.5,2.5,7,2.5h15c3.9,0,7-3.1,7-7c0-0.5-0.1-0.9-0.3-1.3    C58.6,53,60,51.2,60,49c0-1.3-0.5-2.4-1.3-3.3C60.6,45,62,43.2,62,41c0-1.4-0.6-2.7-1.6-3.6c1.5-0.9,2.6-2.5,2.6-4.4    c0-2.8-2.2-5-5-5H43.3l3.3-13.8c0.3-1,0.4-2.1,0.4-3.2c0-2.7-0.9-5.4-2.7-7.5c-0.8-1-2.1-1.4-3.3-0.9c-1.2,0.4-2,1.5-2,2.8v1.6    c0,2.4-0.6,4.7-1.9,6.7l-4.4,7.3c-0.7,1.2-1.7,2.2-2.9,2.9c-1.4,0.9-2.5,2.1-3.3,3.4c-1.4,2.4-3.2,4.5-5.3,6    C19.7,34.4,17.9,35,16,35h-2V58z" fill="#FFCCBC"/><path d="M16.9,58c-1.2-4.7-1.9-9.6-1.9-14.7c0-2.8,0.2-5.6,0.6-8.3H14v23H16.9z" fill="#FFAB91"/><g><polygon fill="#FFAB91" points="56.7,53.7 51,52 51,54    "/><polygon fill="#FFAB91" points="58.7,45.7 53,44 53,46    "/><polygon fill="#FFAB91" points="60.4,37.4 53,36 53,38    "/><path d="M43.7,26.2c-2.1,0.9-4.3,1.6-6.7,1.8l0,0h6.3L43.7,26.2z" fill="#FFAB91"/></g><path d="M13,61H1V33h12c1.1,0,2,0.9,2,2v24C15,60.1,14.1,61,13,61z" fill="#E1BEE7"/><rect fill="#AB47BC" height="3" width="1" x="6" y="50.5"/><circle cx="6.5" cy="55.5" fill="#FFFFFF" r="2.5"/></g></g><g id="row_1"/></svg>