<svg xmlns="http://www.w3.org/2000/svg" xmlns:xlink="http://www.w3.org/1999/xlink" viewBox="0 0 32 32">
  <defs>
    <style>
      .cls-1 {
        clip-path: url(#clip-Logo);
      }

      .cls-2 {
        fill-rule: evenodd;
      }

      .cls-3, .cls-4, .cls-5, .cls-7 {
        fill: none;
      }

      .cls-3, .cls-4, .cls-5 {
        stroke: #fff;
      }

      .cls-3, .cls-4 {
        stroke-linecap: round;
        stroke-width: 2px;
      }

      .cls-4 {
        stroke-linejoin: bevel;
      }

      .cls-6 {
        stroke: none;
      }

      .cls-8 {
        fill: #fff;
      }
    </style>
    <clipPath id="clip-Logo">
      <rect width="32" height="32"/>
    </clipPath>
  </defs>
  <g id="Logo" class="cls-1">
    <rect class="cls-8" width="32" height="32"/>
    <g id="comment_icon">
      <g id="Icons-Communication">
        <g id="comment">
          <path id="Shape" class="cls-2" d="M32,3.2A3.209,3.209,0,0,0,28.8,0H3.2A3.209,3.209,0,0,0,0,3.2V22.4a3.209,3.209,0,0,0,3.2,3.2H25.6L32,32V3.2Zm-6.4,16H6.4V16H25.6v3.2Zm0-4.8H6.4V11.2H25.6v3.2Zm0-4.8H6.4V6.4H25.6V9.6Z"/>
          <rect id="Rechteck_3" data-name="Rechteck 3" width="20" height="14" transform="translate(6 6)"/>
        </g>
      </g>
    </g>
    <g id="Gruppe_1" data-name="Gruppe 1" transform="translate(2.088 3)">
      <g id="Rechteck_4" data-name="Rechteck 4" class="cls-3" transform="translate(7 7.454)">
        <rect class="cls-6" width="13.824" height="9.984" rx="1"/>
        <rect class="cls-7" x="1" y="1" width="11.824" height="7.984"/>
      </g>
      <path id="Pfad_1" data-name="Pfad 1" class="cls-4" d="M2241.427,114.042v-4.681s1.485-2.715,4.28-2.678a4.635,4.635,0,0,1,3.946,2.678" transform="translate(-2231.795 -106)"/>
    </g>
    <g id="Ellipse_1" data-name="Ellipse 1" class="cls-5" transform="translate(15 14)">
      <circle class="cls-6" cx="1" cy="1" r="1"/>
      <circle class="cls-7" cx="1" cy="1" r="0.5"/>
    </g>
    <line id="Linie_1" data-name="Linie 1" class="cls-5" y2="2" transform="translate(16 15)"/>
  </g>
</svg>
